<mxfile host="app.diagrams.net" modified="2023-12-14T16:22:28.349Z" agent="Mozilla/5.0 (Windows NT 10.0; Win64; x64) AppleWebKit/537.36 (KHTML, like Gecko) Chrome/118.0.0.0 Safari/537.36 OPR/104.0.0.0" etag="GJ0YPxXrIhgBCs_VL2sz" version="22.1.8" type="device">
  <diagram id="C5RBs43oDa-KdzZeNtuy" name="Page-1">
    <mxGraphModel dx="-3174" dy="-2979" grid="1" gridSize="10" guides="1" tooltips="1" connect="1" arrows="1" fold="1" page="1" pageScale="1" pageWidth="827" pageHeight="1169" math="0" shadow="0">
      <root>
        <mxCell id="WIyWlLk6GJQsqaUBKTNV-0" />
        <mxCell id="WIyWlLk6GJQsqaUBKTNV-1" parent="WIyWlLk6GJQsqaUBKTNV-0" />
        <UserObject label="" tags="Соединительная_линия" id="h8bX4TpYPx4jOijM28Mo-287">
          <mxCell parent="WIyWlLk6GJQsqaUBKTNV-1" vertex="1" visible="0">
            <mxGeometry x="3460" y="480" as="geometry" />
          </mxCell>
        </UserObject>
        <UserObject label="" tags="Соединительная_линия" id="5JgCZceG1wtr7dIVo2c--163">
          <mxCell parent="WIyWlLk6GJQsqaUBKTNV-1" vertex="1" visible="0">
            <mxGeometry x="5180" y="1710" as="geometry" />
          </mxCell>
        </UserObject>
        <UserObject label="" tags="Соединительная_линия" id="5JgCZceG1wtr7dIVo2c--281">
          <mxCell parent="WIyWlLk6GJQsqaUBKTNV-1" vertex="1" visible="0">
            <mxGeometry x="6570" y="2910" as="geometry" />
          </mxCell>
        </UserObject>
        <UserObject label="" tags="Соединительная_линия" id="5JgCZceG1wtr7dIVo2c--366">
          <mxCell parent="WIyWlLk6GJQsqaUBKTNV-1" vertex="1" visible="0">
            <mxGeometry x="5530" y="3620" as="geometry" />
          </mxCell>
        </UserObject>
        <UserObject label="" tags="Соединительная_линия" id="cRIQFE2jVJvkHg1aeFsc-99">
          <mxCell vertex="1" visible="0" parent="WIyWlLk6GJQsqaUBKTNV-1">
            <mxGeometry x="3500" y="670" as="geometry" />
          </mxCell>
        </UserObject>
        <UserObject label="" tags="Соединительная_линия" id="cRIQFE2jVJvkHg1aeFsc-162">
          <mxCell vertex="1" visible="0" parent="WIyWlLk6GJQsqaUBKTNV-1">
            <mxGeometry x="5220" y="1900" as="geometry" />
          </mxCell>
        </UserObject>
        <UserObject label="" tags="Соединительная_линия" id="cRIQFE2jVJvkHg1aeFsc-197">
          <mxCell vertex="1" visible="0" parent="WIyWlLk6GJQsqaUBKTNV-1">
            <mxGeometry x="4420" y="2340" as="geometry" />
          </mxCell>
        </UserObject>
        <UserObject label="" tags="Соединительная_линия" id="cRIQFE2jVJvkHg1aeFsc-198">
          <mxCell vertex="1" visible="0" parent="WIyWlLk6GJQsqaUBKTNV-1">
            <mxGeometry x="6140" y="3570" as="geometry" />
          </mxCell>
        </UserObject>
        <UserObject label="" tags="Соединительная_линия" id="cRIQFE2jVJvkHg1aeFsc-199">
          <mxCell vertex="1" visible="0" parent="WIyWlLk6GJQsqaUBKTNV-1">
            <mxGeometry x="7530" y="4770" as="geometry" />
          </mxCell>
        </UserObject>
        <UserObject label="" tags="Соединительная_линия" id="cRIQFE2jVJvkHg1aeFsc-261">
          <mxCell vertex="1" visible="0" parent="WIyWlLk6GJQsqaUBKTNV-1">
            <mxGeometry x="6490" y="5480" as="geometry" />
          </mxCell>
        </UserObject>
        <UserObject label="" tags="Соединительная_линия" id="cRIQFE2jVJvkHg1aeFsc-292">
          <mxCell vertex="1" visible="0" parent="WIyWlLk6GJQsqaUBKTNV-1">
            <mxGeometry x="5270" y="1750" as="geometry" />
          </mxCell>
        </UserObject>
        <UserObject label="" tags="Соединительная_линия" id="cRIQFE2jVJvkHg1aeFsc-294">
          <mxCell vertex="1" visible="0" parent="WIyWlLk6GJQsqaUBKTNV-1">
            <mxGeometry x="6990" y="2980" as="geometry" />
          </mxCell>
        </UserObject>
        <UserObject label="" tags="Фон" id="cRIQFE2jVJvkHg1aeFsc-295">
          <mxCell style="vsdxID=314;fillColor=#FFFFFF;gradientColor=none;shape=stencil(UzV2Ls5ILEhVNTIoLinKz04tz0wpyVA1dlE1MsrMy0gtyiwBslSNXVWNndPyi1LTi/JL81Ig/IJEkEoQKze/DGRCBUSfoYEBSI+RQSUq3w2iOCczD49iPErJVIjXektLPRMzfMqBDIQ/IUGELIceJkAhSHgauwIA);strokeColor=#000000;strokeWidth=4;spacingTop=-2;spacingBottom=-2;spacingLeft=-2;spacingRight=-2;points=[];labelBackgroundColor=#ffffff;rounded=0;html=1;whiteSpace=wrap;" vertex="1" parent="WIyWlLk6GJQsqaUBKTNV-1">
            <mxGeometry x="4394" y="4506.4" width="740" height="220" as="geometry" />
          </mxCell>
        </UserObject>
        <UserObject label="" tags="Фон" id="cRIQFE2jVJvkHg1aeFsc-296">
          <mxCell style="vsdxID=315;fillColor=#FFFFFF;gradientColor=none;shape=stencil(fY9LDoAgDERP0z3SIyjeg0QUooJB/N1eSGMkJrib6bxpWsB61XJRwNkavBvVYbqgARvg3FitvAlRAQrAundeDd5ttiO/yEQmNbs9bTipx1KDsyt3LYGTsUWwYj/oExbgKN5r6JE8+14eR/Q1ihs=);strokeColor=#000000;strokeWidth=4;spacingTop=-2;spacingBottom=-2;spacingLeft=-2;spacingRight=-2;points=[];labelBackgroundColor=#ffffff;rounded=0;html=1;whiteSpace=wrap;" vertex="1" parent="WIyWlLk6GJQsqaUBKTNV-1">
            <mxGeometry x="4654" y="4566.4" width="480" height="100" as="geometry" />
          </mxCell>
        </UserObject>
        <UserObject label="" tags="Фон" id="cRIQFE2jVJvkHg1aeFsc-297">
          <mxCell style="vsdxID=316;edgeStyle=none;startArrow=none;endArrow=none;startSize=3;endSize=3;strokeWidth=4;strokeColor=#000000;spacingTop=-2;spacingBottom=-2;spacingLeft=-2;spacingRight=-2;verticalAlign=middle;html=1;labelBackgroundColor=#ffffff;rounded=0;" edge="1" parent="WIyWlLk6GJQsqaUBKTNV-1">
            <mxGeometry relative="1" as="geometry">
              <Array as="points" />
              <mxPoint x="4654" y="4666.4" as="sourcePoint" />
              <mxPoint x="4654" y="4726.4" as="targetPoint" />
            </mxGeometry>
          </mxCell>
        </UserObject>
        <UserObject label="" tags="Фон" id="cRIQFE2jVJvkHg1aeFsc-298">
          <mxCell style="vsdxID=317;edgeStyle=none;startArrow=none;endArrow=none;startSize=3;endSize=3;strokeWidth=4;strokeColor=#000000;spacingTop=-2;spacingBottom=-2;spacingLeft=-2;spacingRight=-2;verticalAlign=middle;html=1;labelBackgroundColor=#ffffff;rounded=0;" edge="1" parent="WIyWlLk6GJQsqaUBKTNV-1">
            <mxGeometry relative="1" as="geometry">
              <Array as="points" />
              <mxPoint x="4934" y="4566.4" as="sourcePoint" />
              <mxPoint x="4934" y="4726.4" as="targetPoint" />
            </mxGeometry>
          </mxCell>
        </UserObject>
        <UserObject label="" tags="Фон" id="cRIQFE2jVJvkHg1aeFsc-299">
          <mxCell style="vsdxID=318;edgeStyle=none;startArrow=none;endArrow=none;startSize=3;endSize=3;strokeColor=#000000;spacingTop=-2;spacingBottom=-2;spacingLeft=-2;spacingRight=-2;verticalAlign=middle;html=1;labelBackgroundColor=#ffffff;rounded=0;" edge="1" parent="WIyWlLk6GJQsqaUBKTNV-1">
            <mxGeometry relative="1" as="geometry">
              <mxPoint as="offset" />
              <Array as="points" />
              <mxPoint x="4394" y="4526.4" as="sourcePoint" />
              <mxPoint x="4654" y="4526.4" as="targetPoint" />
            </mxGeometry>
          </mxCell>
        </UserObject>
        <UserObject label="" tags="Фон" id="cRIQFE2jVJvkHg1aeFsc-300">
          <mxCell style="vsdxID=319;edgeStyle=none;startArrow=none;endArrow=none;startSize=3;endSize=3;strokeColor=#000000;spacingTop=-2;spacingBottom=-2;spacingLeft=-2;spacingRight=-2;verticalAlign=middle;html=1;labelBackgroundColor=#ffffff;rounded=0;" edge="1" parent="WIyWlLk6GJQsqaUBKTNV-1">
            <mxGeometry relative="1" as="geometry">
              <mxPoint as="offset" />
              <Array as="points" />
              <mxPoint x="4394" y="4546.4" as="sourcePoint" />
              <mxPoint x="4654" y="4546.4" as="targetPoint" />
            </mxGeometry>
          </mxCell>
        </UserObject>
        <UserObject label="" tags="Фон" id="cRIQFE2jVJvkHg1aeFsc-301">
          <mxCell style="vsdxID=320;edgeStyle=none;startArrow=none;endArrow=none;startSize=3;endSize=3;strokeColor=#000000;spacingTop=-2;spacingBottom=-2;spacingLeft=-2;spacingRight=-2;verticalAlign=middle;html=1;labelBackgroundColor=#ffffff;rounded=0;" edge="1" parent="WIyWlLk6GJQsqaUBKTNV-1">
            <mxGeometry relative="1" as="geometry">
              <mxPoint as="offset" />
              <Array as="points" />
              <mxPoint x="4394" y="4566.4" as="sourcePoint" />
              <mxPoint x="4654" y="4566.4" as="targetPoint" />
            </mxGeometry>
          </mxCell>
        </UserObject>
        <UserObject label="" tags="Фон" id="cRIQFE2jVJvkHg1aeFsc-302">
          <mxCell style="vsdxID=321;edgeStyle=none;startArrow=none;endArrow=none;startSize=3;endSize=3;strokeWidth=4;strokeColor=#000000;spacingTop=-2;spacingBottom=-2;spacingLeft=-2;spacingRight=-2;verticalAlign=middle;html=1;labelBackgroundColor=#ffffff;rounded=0;" edge="1" parent="WIyWlLk6GJQsqaUBKTNV-1">
            <mxGeometry relative="1" as="geometry">
              <mxPoint as="offset" />
              <Array as="points" />
              <mxPoint x="4394" y="4586.4" as="sourcePoint" />
              <mxPoint x="4654" y="4586.4" as="targetPoint" />
            </mxGeometry>
          </mxCell>
        </UserObject>
        <UserObject label="" tags="Фон" id="cRIQFE2jVJvkHg1aeFsc-303">
          <mxCell style="vsdxID=322;edgeStyle=none;startArrow=none;endArrow=none;startSize=3;endSize=3;strokeColor=#000000;spacingTop=-2;spacingBottom=-2;spacingLeft=-2;spacingRight=-2;verticalAlign=middle;html=1;labelBackgroundColor=#ffffff;rounded=0;" edge="1" parent="WIyWlLk6GJQsqaUBKTNV-1">
            <mxGeometry relative="1" as="geometry">
              <mxPoint as="offset" />
              <Array as="points" />
              <mxPoint x="4394" y="4626.4" as="sourcePoint" />
              <mxPoint x="4654" y="4626.4" as="targetPoint" />
            </mxGeometry>
          </mxCell>
        </UserObject>
        <UserObject label="" tags="Фон" id="cRIQFE2jVJvkHg1aeFsc-304">
          <mxCell style="vsdxID=323;edgeStyle=none;startArrow=none;endArrow=none;startSize=3;endSize=3;strokeColor=#000000;spacingTop=-2;spacingBottom=-2;spacingLeft=-2;spacingRight=-2;verticalAlign=middle;html=1;labelBackgroundColor=#ffffff;rounded=0;" edge="1" parent="WIyWlLk6GJQsqaUBKTNV-1">
            <mxGeometry relative="1" as="geometry">
              <mxPoint as="offset" />
              <Array as="points" />
              <mxPoint x="4394" y="4666.4" as="sourcePoint" />
              <mxPoint x="4654" y="4666.4" as="targetPoint" />
            </mxGeometry>
          </mxCell>
        </UserObject>
        <UserObject label="" tags="Фон" id="cRIQFE2jVJvkHg1aeFsc-305">
          <mxCell style="vsdxID=324;edgeStyle=none;startArrow=none;endArrow=none;startSize=3;endSize=3;strokeWidth=4;strokeColor=#000000;spacingTop=-2;spacingBottom=-2;spacingLeft=-2;spacingRight=-2;verticalAlign=middle;html=1;labelBackgroundColor=#ffffff;rounded=0;" edge="1" parent="WIyWlLk6GJQsqaUBKTNV-1">
            <mxGeometry relative="1" as="geometry">
              <mxPoint as="offset" />
              <Array as="points" />
              <mxPoint x="4394" y="4606.4" as="sourcePoint" />
              <mxPoint x="4654" y="4606.4" as="targetPoint" />
            </mxGeometry>
          </mxCell>
        </UserObject>
        <UserObject label="" tags="Фон" id="cRIQFE2jVJvkHg1aeFsc-306">
          <mxCell style="vsdxID=325;edgeStyle=none;startArrow=none;endArrow=none;startSize=3;endSize=3;strokeColor=#000000;spacingTop=-2;spacingBottom=-2;spacingLeft=-2;spacingRight=-2;verticalAlign=middle;html=1;labelBackgroundColor=#ffffff;rounded=0;" edge="1" parent="WIyWlLk6GJQsqaUBKTNV-1">
            <mxGeometry relative="1" as="geometry">
              <mxPoint as="offset" />
              <Array as="points" />
              <mxPoint x="4394" y="4646.4" as="sourcePoint" />
              <mxPoint x="4654" y="4646.4" as="targetPoint" />
            </mxGeometry>
          </mxCell>
        </UserObject>
        <UserObject label="" tags="Фон" id="cRIQFE2jVJvkHg1aeFsc-307">
          <mxCell style="vsdxID=326;edgeStyle=none;startArrow=none;endArrow=none;startSize=3;endSize=3;strokeColor=#000000;spacingTop=-2;spacingBottom=-2;spacingLeft=-2;spacingRight=-2;verticalAlign=middle;html=1;labelBackgroundColor=#ffffff;rounded=0;" edge="1" parent="WIyWlLk6GJQsqaUBKTNV-1">
            <mxGeometry relative="1" as="geometry">
              <mxPoint as="offset" />
              <Array as="points" />
              <mxPoint x="4394" y="4686.4" as="sourcePoint" />
              <mxPoint x="4654" y="4686.4" as="targetPoint" />
            </mxGeometry>
          </mxCell>
        </UserObject>
        <UserObject label="" tags="Фон" id="cRIQFE2jVJvkHg1aeFsc-308">
          <mxCell style="vsdxID=327;edgeStyle=none;startArrow=none;endArrow=none;startSize=3;endSize=3;strokeColor=#000000;spacingTop=-2;spacingBottom=-2;spacingLeft=-2;spacingRight=-2;verticalAlign=middle;html=1;labelBackgroundColor=#ffffff;rounded=0;" edge="1" parent="WIyWlLk6GJQsqaUBKTNV-1">
            <mxGeometry relative="1" as="geometry">
              <mxPoint as="offset" />
              <Array as="points" />
              <mxPoint x="4394" y="4706.4" as="sourcePoint" />
              <mxPoint x="4654" y="4706.4" as="targetPoint" />
            </mxGeometry>
          </mxCell>
        </UserObject>
        <UserObject label="" tags="Фон" id="cRIQFE2jVJvkHg1aeFsc-309">
          <mxCell style="vsdxID=328;edgeStyle=none;startArrow=none;endArrow=none;startSize=3;endSize=3;strokeWidth=4;strokeColor=#000000;spacingTop=-2;spacingBottom=-2;spacingLeft=-2;spacingRight=-2;verticalAlign=middle;html=1;labelBackgroundColor=#ffffff;rounded=0;" edge="1" parent="WIyWlLk6GJQsqaUBKTNV-1">
            <mxGeometry relative="1" as="geometry">
              <Array as="points" />
              <mxPoint x="4422" y="4506.4" as="sourcePoint" />
              <mxPoint x="4422" y="4606.4" as="targetPoint" />
            </mxGeometry>
          </mxCell>
        </UserObject>
        <UserObject label="" tags="Фон" id="cRIQFE2jVJvkHg1aeFsc-310">
          <mxCell style="vsdxID=329;edgeStyle=none;startArrow=none;endArrow=none;startSize=3;endSize=3;strokeWidth=4;strokeColor=#000000;spacingTop=-2;spacingBottom=-2;spacingLeft=-2;spacingRight=-2;verticalAlign=middle;html=1;labelBackgroundColor=#ffffff;rounded=0;" edge="1" parent="WIyWlLk6GJQsqaUBKTNV-1">
            <mxGeometry relative="1" as="geometry">
              <Array as="points" />
              <mxPoint x="4462" y="4506.4" as="sourcePoint" />
              <mxPoint x="4462" y="4606.4" as="targetPoint" />
            </mxGeometry>
          </mxCell>
        </UserObject>
        <UserObject label="" tags="Фон" id="cRIQFE2jVJvkHg1aeFsc-311">
          <mxCell style="vsdxID=330;edgeStyle=none;startArrow=none;endArrow=none;startSize=3;endSize=3;strokeWidth=4;strokeColor=#000000;spacingTop=-2;spacingBottom=-2;spacingLeft=-2;spacingRight=-2;verticalAlign=middle;html=1;labelBackgroundColor=#ffffff;rounded=0;" edge="1" parent="WIyWlLk6GJQsqaUBKTNV-1">
            <mxGeometry relative="1" as="geometry">
              <Array as="points" />
              <mxPoint x="4554" y="4506.4" as="sourcePoint" />
              <mxPoint x="4554" y="4606.4" as="targetPoint" />
            </mxGeometry>
          </mxCell>
        </UserObject>
        <UserObject label="" tags="Фон" id="cRIQFE2jVJvkHg1aeFsc-312">
          <mxCell style="vsdxID=331;edgeStyle=none;startArrow=none;endArrow=none;startSize=3;endSize=3;strokeWidth=4;strokeColor=#000000;spacingTop=-2;spacingBottom=-2;spacingLeft=-2;spacingRight=-2;verticalAlign=middle;html=1;labelBackgroundColor=#ffffff;rounded=0;" edge="1" parent="WIyWlLk6GJQsqaUBKTNV-1">
            <mxGeometry relative="1" as="geometry">
              <Array as="points" />
              <mxPoint x="4614" y="4506.4" as="sourcePoint" />
              <mxPoint x="4614" y="4606.4" as="targetPoint" />
            </mxGeometry>
          </mxCell>
        </UserObject>
        <UserObject label="" tags="Фон" id="cRIQFE2jVJvkHg1aeFsc-313">
          <mxCell style="vsdxID=332;edgeStyle=none;startArrow=none;endArrow=none;startSize=3;endSize=3;strokeWidth=4;strokeColor=#000000;spacingTop=-2;spacingBottom=-2;spacingLeft=-2;spacingRight=-2;verticalAlign=middle;html=1;labelBackgroundColor=#ffffff;rounded=0;" edge="1" parent="WIyWlLk6GJQsqaUBKTNV-1">
            <mxGeometry relative="1" as="geometry">
              <Array as="points" />
              <mxPoint x="4462" y="4606.4" as="sourcePoint" />
              <mxPoint x="4462" y="4726.4" as="targetPoint" />
            </mxGeometry>
          </mxCell>
        </UserObject>
        <UserObject label="" tags="Фон" id="cRIQFE2jVJvkHg1aeFsc-314">
          <mxCell style="vsdxID=333;edgeStyle=none;startArrow=none;endArrow=none;startSize=3;endSize=3;strokeWidth=4;strokeColor=#000000;spacingTop=-2;spacingBottom=-2;spacingLeft=-2;spacingRight=-2;verticalAlign=middle;html=1;labelBackgroundColor=#ffffff;rounded=0;" edge="1" parent="WIyWlLk6GJQsqaUBKTNV-1">
            <mxGeometry relative="1" as="geometry">
              <Array as="points" />
              <mxPoint x="4554" y="4606.4" as="sourcePoint" />
              <mxPoint x="4554" y="4726.4" as="targetPoint" />
            </mxGeometry>
          </mxCell>
        </UserObject>
        <UserObject label="" tags="Фон" id="cRIQFE2jVJvkHg1aeFsc-315">
          <mxCell style="vsdxID=334;edgeStyle=none;startArrow=none;endArrow=none;startSize=3;endSize=3;strokeWidth=4;strokeColor=#000000;spacingTop=-2;spacingBottom=-2;spacingLeft=-2;spacingRight=-2;verticalAlign=middle;html=1;labelBackgroundColor=#ffffff;rounded=0;" edge="1" parent="WIyWlLk6GJQsqaUBKTNV-1">
            <mxGeometry relative="1" as="geometry">
              <Array as="points" />
              <mxPoint x="4614" y="4606.4" as="sourcePoint" />
              <mxPoint x="4614" y="4726.4" as="targetPoint" />
            </mxGeometry>
          </mxCell>
        </UserObject>
        <UserObject label="" tags="Фон" id="cRIQFE2jVJvkHg1aeFsc-316">
          <mxCell style="vsdxID=335;edgeStyle=none;startArrow=none;endArrow=none;startSize=3;endSize=3;strokeWidth=4;strokeColor=#000000;spacingTop=-2;spacingBottom=-2;spacingLeft=-2;spacingRight=-2;verticalAlign=middle;html=1;labelBackgroundColor=#ffffff;rounded=0;" edge="1" parent="WIyWlLk6GJQsqaUBKTNV-1">
            <mxGeometry relative="1" as="geometry">
              <mxPoint as="offset" />
              <Array as="points" />
              <mxPoint x="4934" y="4586.4" as="sourcePoint" />
              <mxPoint x="5134" y="4586.4" as="targetPoint" />
            </mxGeometry>
          </mxCell>
        </UserObject>
        <UserObject label="" tags="Фон" id="cRIQFE2jVJvkHg1aeFsc-317">
          <mxCell style="vsdxID=336;edgeStyle=none;startArrow=none;endArrow=none;startSize=3;endSize=3;strokeWidth=4;strokeColor=#000000;spacingTop=-2;spacingBottom=-2;spacingLeft=-2;spacingRight=-2;verticalAlign=middle;html=1;labelBackgroundColor=#ffffff;rounded=0;" edge="1" parent="WIyWlLk6GJQsqaUBKTNV-1">
            <mxGeometry relative="1" as="geometry">
              <mxPoint as="offset" />
              <Array as="points" />
              <mxPoint x="4934" y="4646.4" as="sourcePoint" />
              <mxPoint x="5134" y="4646.4" as="targetPoint" />
            </mxGeometry>
          </mxCell>
        </UserObject>
        <UserObject label="" tags="Фон" id="cRIQFE2jVJvkHg1aeFsc-318">
          <mxCell style="vsdxID=337;fillColor=#FFFFFF;gradientColor=none;shape=stencil(fY9LDoAgDERP0z3SIyjeg0QUooJB/N1eSGMkJrib6bxpWsB61XJRwNkavBvVYbqgARvg3FitvAlRAQrAundeDd5ttiO/yEQmNbs9bTipx1KDsyt3LYGTsUWwYj/oExbgKN5r6JE8+14eR/Q1ihs=);strokeColor=#000000;strokeWidth=4;spacingTop=-2;spacingBottom=-2;spacingLeft=-2;spacingRight=-2;points=[];labelBackgroundColor=#ffffff;rounded=0;html=1;whiteSpace=wrap;" vertex="1" parent="WIyWlLk6GJQsqaUBKTNV-1">
            <mxGeometry x="4654" y="4506.4" width="480" height="60" as="geometry" />
          </mxCell>
        </UserObject>
        <UserObject label="&lt;div style=&quot;font-size: 1px&quot;&gt;&lt;font style=&quot;font-size:33.87px;font-family:Arial;color:#000000;direction:ltr;letter-spacing:0px;line-height:120%;opacity:1&quot;&gt;&lt;i&gt;ГУИР.400201&lt;/i&gt;&lt;/font&gt;&lt;font style=&quot;font-size:33.87px;font-family:Arial;color:#000000;direction:ltr;letter-spacing:0px;line-height:120%;opacity:1&quot;&gt;&lt;i&gt;.303 PP&lt;/i&gt;&lt;/font&gt;&lt;font style=&quot;font-size:33.87px;font-family:Arial;color:#000000;direction:ltr;letter-spacing:0px;line-height:120%;opacity:1&quot;&gt;&lt;i&gt;&lt;br&gt;&lt;/i&gt;&lt;/font&gt;&lt;/div&gt;" tags="Фон" id="cRIQFE2jVJvkHg1aeFsc-319">
          <mxCell style="verticalAlign=middle;align=center;overflow=width;vsdxID=338;fillColor=none;gradientColor=none;shape=stencil(nZBLDoAgDERP0z3SIyjew0SURgSD+Lu9kMZoXLhwN9O+tukAlrNpJg1SzDH4QW/URgNYgZTkjA4UkwJUgGXng+6DX1zLfmoymdXo17xh5zmRJ6Q42BWCfc2oJfdAr+Yv+AP9Cb7OJ3H/2JG1HNGz/84klThPVCc=);strokeColor=none;spacingTop=-2;spacingBottom=-2;spacingLeft=-2;spacingRight=-2;points=[];labelBackgroundColor=none;rounded=0;html=1;whiteSpace=wrap;" vertex="1" parent="WIyWlLk6GJQsqaUBKTNV-1">
            <mxGeometry x="4654" y="4506.4" width="480" height="60" as="geometry" />
          </mxCell>
        </UserObject>
        <UserObject label="&lt;div style=&quot;font-size: 1px&quot;&gt;&lt;font style=&quot;font-size:12.7px;font-family:Arial;color:#000000;direction:ltr;letter-spacing:0px;line-height:120%;opacity:1&quot;&gt;&lt;i&gt;Лит.&lt;br/&gt;&lt;/i&gt;&lt;/font&gt;&lt;/div&gt;" tags="Фон" id="cRIQFE2jVJvkHg1aeFsc-320">
          <mxCell style="verticalAlign=middle;align=center;overflow=width;vsdxID=339;fillColor=none;gradientColor=none;shape=stencil(nZBLDoAgDERP0z3SIyjew0SURgSD+Lu9kMZoXLhwN9O+tukAlrNpJg1SzDH4QW/URgNYgZTkjA4UkwJUgGXng+6DX1zLfmoymdXo17xh5zmRJ6Q42BWCfc2oJfdAr+Yv+AP9Cb7OJ3H/2JG1HNGz/84klThPVCc=);strokeColor=none;spacingTop=-2;spacingBottom=-2;spacingLeft=-2;spacingRight=-2;points=[];labelBackgroundColor=none;rounded=0;html=1;whiteSpace=wrap;" vertex="1" parent="WIyWlLk6GJQsqaUBKTNV-1">
            <mxGeometry x="4934" y="4566.4" width="60" height="20" as="geometry" />
          </mxCell>
        </UserObject>
        <UserObject label="&lt;div style=&quot;font-size: 1px&quot;&gt;&lt;font style=&quot;font-size:12.7px;font-family:Arial;color:#000000;direction:ltr;letter-spacing:0px;line-height:120%;opacity:1&quot;&gt;&lt;i&gt;Масса&lt;br/&gt;&lt;/i&gt;&lt;/font&gt;&lt;/div&gt;" tags="Фон" id="cRIQFE2jVJvkHg1aeFsc-321">
          <mxCell style="verticalAlign=middle;align=center;overflow=width;vsdxID=340;fillColor=none;gradientColor=none;shape=stencil(nZBLDoAgDERP0z3SIyjew0SURgSD+Lu9kMZoXLhwN9O+tukAlrNpJg1SzDH4QW/URgNYgZTkjA4UkwJUgGXng+6DX1zLfmoymdXo17xh5zmRJ6Q42BWCfc2oJfdAr+Yv+AP9Cb7OJ3H/2JG1HNGz/84klThPVCc=);strokeColor=none;spacingTop=-2;spacingBottom=-2;spacingLeft=-2;spacingRight=-2;points=[];labelBackgroundColor=none;rounded=0;html=1;whiteSpace=wrap;" vertex="1" parent="WIyWlLk6GJQsqaUBKTNV-1">
            <mxGeometry x="4994" y="4566.4" width="60" height="20" as="geometry" />
          </mxCell>
        </UserObject>
        <UserObject label="&lt;div style=&quot;font-size: 1px&quot;&gt;&lt;font style=&quot;font-size:12.7px;font-family:Arial;color:#000000;direction:ltr;letter-spacing:0px;line-height:120%;opacity:1&quot;&gt;&lt;i&gt;Масштаб&lt;br/&gt;&lt;/i&gt;&lt;/font&gt;&lt;/div&gt;" tags="Фон" id="cRIQFE2jVJvkHg1aeFsc-322">
          <mxCell style="verticalAlign=middle;align=center;overflow=width;vsdxID=341;fillColor=none;gradientColor=none;shape=stencil(nZBLDoAgDERP0z3SIyjew0SURgSD+Lu9kMZoXLhwN9O+tukAlrNpJg1SzDH4QW/URgNYgZTkjA4UkwJUgGXng+6DX1zLfmoymdXo17xh5zmRJ6Q42BWCfc2oJfdAr+Yv+AP9Cb7OJ3H/2JG1HNGz/84klThPVCc=);strokeColor=none;spacingTop=-2;spacingBottom=-2;spacingLeft=-2;spacingRight=-2;points=[];labelBackgroundColor=none;rounded=0;html=1;whiteSpace=wrap;" vertex="1" parent="WIyWlLk6GJQsqaUBKTNV-1">
            <mxGeometry x="5056" y="4568.4" width="80" height="16" as="geometry" />
          </mxCell>
        </UserObject>
        <UserObject label="&lt;div style=&quot;font-size: 1px&quot;&gt;&lt;font style=&quot;font-size:12.7px;font-family:Arial;color:#000000;direction:ltr;letter-spacing:0px;line-height:120%;opacity:1&quot;&gt;&lt;i&gt;Лист&lt;/i&gt;&lt;/font&gt;&lt;font style=&quot;font-size:12.7px;font-family:Arial;color:#000000;direction:ltr;letter-spacing:0px;line-height:120%;opacity:1&quot;&gt;&lt;i&gt; &lt;/i&gt;&lt;/font&gt;&lt;font style=&quot;font-size:12.7px;font-family:Arial;color:#000000;direction:ltr;letter-spacing:0px;line-height:120%;opacity:1&quot;&gt;&lt;i&gt;&lt;br/&gt;&lt;/i&gt;&lt;/font&gt;&lt;/div&gt;" tags="Фон" id="cRIQFE2jVJvkHg1aeFsc-323">
          <mxCell style="verticalAlign=middle;align=center;overflow=width;vsdxID=343;fillColor=none;gradientColor=none;shape=stencil(nZBLDoAgDERP0z3SIyjew0SURgSD+Lu9kMZoXLhwN9O+tukAlrNpJg1SzDH4QW/URgNYgZTkjA4UkwJUgGXng+6DX1zLfmoymdXo17xh5zmRJ6Q42BWCfc2oJfdAr+Yv+AP9Cb7OJ3H/2JG1HNGz/84klThPVCc=);strokeColor=none;spacingTop=-2;spacingBottom=-2;spacingLeft=-2;spacingRight=-2;points=[];labelBackgroundColor=none;rounded=0;html=1;whiteSpace=wrap;" vertex="1" parent="WIyWlLk6GJQsqaUBKTNV-1">
            <mxGeometry x="4934" y="4648.4" width="60" height="18" as="geometry" />
          </mxCell>
        </UserObject>
        <UserObject label="" tags="Фон" id="cRIQFE2jVJvkHg1aeFsc-324">
          <mxCell style="vsdxID=344;edgeStyle=none;startArrow=none;endArrow=none;startSize=3;endSize=3;strokeColor=#000000;spacingTop=-2;spacingBottom=-2;spacingLeft=-2;spacingRight=-2;verticalAlign=middle;html=1;labelBackgroundColor=#ffffff;rounded=0;" edge="1" parent="WIyWlLk6GJQsqaUBKTNV-1">
            <mxGeometry relative="1" as="geometry">
              <Array as="points" />
              <mxPoint x="5062" y="4566.4" as="sourcePoint" />
              <mxPoint x="5062" y="4646.4" as="targetPoint" />
            </mxGeometry>
          </mxCell>
        </UserObject>
        <UserObject label="" tags="Фон" id="cRIQFE2jVJvkHg1aeFsc-325">
          <mxCell style="vsdxID=345;edgeStyle=none;startArrow=none;endArrow=none;startSize=3;endSize=3;strokeColor=#000000;spacingTop=-2;spacingBottom=-2;spacingLeft=-2;spacingRight=-2;verticalAlign=middle;html=1;labelBackgroundColor=#ffffff;rounded=0;" edge="1" parent="WIyWlLk6GJQsqaUBKTNV-1">
            <mxGeometry relative="1" as="geometry">
              <Array as="points" />
              <mxPoint x="5014" y="4646.4" as="sourcePoint" />
              <mxPoint x="5014" y="4666.4" as="targetPoint" />
            </mxGeometry>
          </mxCell>
        </UserObject>
        <UserObject label="" tags="Фон" id="cRIQFE2jVJvkHg1aeFsc-326">
          <mxCell style="vsdxID=346;edgeStyle=none;startArrow=none;endArrow=none;startSize=3;endSize=3;strokeColor=#000000;spacingTop=-2;spacingBottom=-2;spacingLeft=-2;spacingRight=-2;verticalAlign=middle;html=1;labelBackgroundColor=#ffffff;rounded=0;" edge="1" parent="WIyWlLk6GJQsqaUBKTNV-1">
            <mxGeometry relative="1" as="geometry">
              <Array as="points" />
              <mxPoint x="4994" y="4566.4" as="sourcePoint" />
              <mxPoint x="4994" y="4646.4" as="targetPoint" />
            </mxGeometry>
          </mxCell>
        </UserObject>
        <UserObject label="&lt;div style=&quot;font-size: 1px&quot;&gt;&lt;font style=&quot;font-size:12.7px;font-family:Arial;color:#000000;direction:ltr;letter-spacing:0px;line-height:120%;opacity:1&quot;&gt;&lt;i&gt;Листов    &lt;/i&gt;&lt;/font&gt;&lt;font style=&quot;font-size:12.7px;font-family:Arial;color:#000000;direction:ltr;letter-spacing:0px;line-height:120%;opacity:1&quot;&gt;&lt;i&gt;1&lt;br/&gt;&lt;/i&gt;&lt;/font&gt;&lt;/div&gt;" tags="Фон" id="cRIQFE2jVJvkHg1aeFsc-327">
          <mxCell style="verticalAlign=middle;align=center;overflow=width;vsdxID=347;fillColor=none;gradientColor=none;shape=stencil(nZBLDoAgDERP0z3SIyjew0SURgSD+Lu9kMZoXLhwN9O+tukAlrNpJg1SzDH4QW/URgNYgZTkjA4UkwJUgGXng+6DX1zLfmoymdXo17xh5zmRJ6Q42BWCfc2oJfdAr+Yv+AP9Cb7OJ3H/2JG1HNGz/84klThPVCc=);strokeColor=none;spacingTop=-2;spacingBottom=-2;spacingLeft=-2;spacingRight=-2;points=[];labelBackgroundColor=none;rounded=0;html=1;whiteSpace=wrap;" vertex="1" parent="WIyWlLk6GJQsqaUBKTNV-1">
            <mxGeometry x="5016" y="4646.4" width="118" height="20" as="geometry" />
          </mxCell>
        </UserObject>
        <UserObject label="&lt;div style=&quot;font-size: 1px&quot;&gt;&lt;font style=&quot;font-size:22.58px;font-family:Arial;color:#000000;direction:ltr;letter-spacing:0px;line-height:120%;opacity:1&quot;&gt;&lt;i&gt;ЭВМ, гр. 250503&lt;/i&gt;&lt;/font&gt;&lt;/div&gt;" tags="Фон" id="cRIQFE2jVJvkHg1aeFsc-328">
          <mxCell style="verticalAlign=middle;align=center;overflow=width;vsdxID=348;fillColor=none;gradientColor=none;shape=stencil(nZBLDoAgDERP0z3SIyjew0SURgSD+Lu9kMZoXLhwN9O+tukAlrNpJg1SzDH4QW/URgNYgZTkjA4UkwJUgGXng+6DX1zLfmoymdXo17xh5zmRJ6Q42BWCfc2oJfdAr+Yv+AP9Cb7OJ3H/2JG1HNGz/84klThPVCc=);strokeColor=none;spacingTop=-2;spacingBottom=-2;spacingLeft=-2;spacingRight=-2;points=[[0.64,1,0],[1,1,0]];labelBackgroundColor=none;rounded=0;html=1;whiteSpace=wrap;" vertex="1" parent="WIyWlLk6GJQsqaUBKTNV-1">
            <mxGeometry x="4934" y="4666.4" width="199" height="60" as="geometry" />
          </mxCell>
        </UserObject>
        <UserObject label="&lt;div style=&quot;font-size: 1px&quot;&gt;&lt;font style=&quot;font-size:11.29px;font-family:Arial;color:#000000;direction:ltr;letter-spacing:0px;line-height:120%;opacity:1&quot;&gt;&lt;i&gt;Изм&lt;/i&gt;&lt;/font&gt;&lt;font style=&quot;font-size:11.29px;font-family:Arial;color:#000000;direction:ltr;letter-spacing:0px;line-height:120%;opacity:1&quot;&gt;&lt;i&gt;.&lt;br/&gt;&lt;/i&gt;&lt;/font&gt;&lt;/div&gt;" tags="Фон" id="cRIQFE2jVJvkHg1aeFsc-329">
          <mxCell style="verticalAlign=middle;align=center;overflow=width;vsdxID=349;fillColor=none;gradientColor=none;shape=stencil(nZBLDoAgDERP0z3SIyjew0SURgSD+Lu9kMZoXLhwN9O+tukAlrNpJg1SzDH4QW/URgNYgZTkjA4UkwJUgGXng+6DX1zLfmoymdXo17xh5zmRJ6Q42BWCfc2oJfdAr+Yv+AP9Cb7OJ3H/2JG1HNGz/84klThPVCc=);strokeColor=none;spacingTop=-2;spacingBottom=-2;spacingLeft=-2;spacingRight=-2;points=[];labelBackgroundColor=none;rounded=0;html=1;whiteSpace=wrap;" vertex="1" parent="WIyWlLk6GJQsqaUBKTNV-1">
            <mxGeometry x="4394" y="4586.4" width="27" height="20" as="geometry" />
          </mxCell>
        </UserObject>
        <UserObject label="&lt;div style=&quot;font-size: 1px&quot;&gt;&lt;font style=&quot;font-size:11.29px;font-family:Arial;color:#000000;direction:ltr;letter-spacing:0px;line-height:120%;opacity:1&quot;&gt;&lt;i&gt;Лист&lt;br/&gt;&lt;/i&gt;&lt;/font&gt;&lt;/div&gt;" tags="Фон" id="cRIQFE2jVJvkHg1aeFsc-330">
          <mxCell style="verticalAlign=middle;align=center;overflow=width;vsdxID=350;fillColor=none;gradientColor=none;shape=stencil(nZBLDoAgDERP0z3SIyjew0SURgSD+Lu9kMZoXLhwN9O+tukAlrNpJg1SzDH4QW/URgNYgZTkjA4UkwJUgGXng+6DX1zLfmoymdXo17xh5zmRJ6Q42BWCfc2oJfdAr+Yv+AP9Cb7OJ3H/2JG1HNGz/84klThPVCc=);strokeColor=none;spacingTop=-2;spacingBottom=-2;spacingLeft=-2;spacingRight=-2;points=[];labelBackgroundColor=none;rounded=0;html=1;whiteSpace=wrap;" vertex="1" parent="WIyWlLk6GJQsqaUBKTNV-1">
            <mxGeometry x="4422" y="4586.4" width="39" height="20" as="geometry" />
          </mxCell>
        </UserObject>
        <UserObject label="&lt;div style=&quot;font-size: 1px&quot;&gt;&lt;font style=&quot;font-size:11.29px;font-family:Arial;color:#000000;direction:ltr;letter-spacing:0px;line-height:120%;opacity:1&quot;&gt;&lt;i&gt;№ докум.&lt;br/&gt;&lt;/i&gt;&lt;/font&gt;&lt;/div&gt;" tags="Фон" id="cRIQFE2jVJvkHg1aeFsc-331">
          <mxCell style="verticalAlign=middle;align=center;overflow=width;vsdxID=351;fillColor=none;gradientColor=none;shape=stencil(nZBLDoAgDERP0z3SIyjew0SURgSD+Lu9kMZoXLhwN9O+tukAlrNpJg1SzDH4QW/URgNYgZTkjA4UkwJUgGXng+6DX1zLfmoymdXo17xh5zmRJ6Q42BWCfc2oJfdAr+Yv+AP9Cb7OJ3H/2JG1HNGz/84klThPVCc=);strokeColor=none;strokeWidth=4;spacingTop=-2;spacingBottom=-2;spacingLeft=-2;spacingRight=-2;points=[];labelBackgroundColor=none;rounded=0;html=1;whiteSpace=wrap;" vertex="1" parent="WIyWlLk6GJQsqaUBKTNV-1">
            <mxGeometry x="4462" y="4586.4" width="91" height="20" as="geometry" />
          </mxCell>
        </UserObject>
        <UserObject label="&lt;div style=&quot;font-size: 1px&quot;&gt;&lt;font style=&quot;font-size:11.29px;font-family:Arial;color:#000000;direction:ltr;letter-spacing:0px;line-height:120%;opacity:1&quot;&gt;&lt;i&gt;Подп.&lt;br/&gt;&lt;/i&gt;&lt;/font&gt;&lt;/div&gt;" tags="Фон" id="cRIQFE2jVJvkHg1aeFsc-332">
          <mxCell style="verticalAlign=middle;align=center;overflow=width;vsdxID=352;fillColor=none;gradientColor=none;shape=stencil(nZBLDoAgDERP0z3SIyjew0SURgSD+Lu9kMZoXLhwN9O+tukAlrNpJg1SzDH4QW/URgNYgZTkjA4UkwJUgGXng+6DX1zLfmoymdXo17xh5zmRJ6Q42BWCfc2oJfdAr+Yv+AP9Cb7OJ3H/2JG1HNGz/84klThPVCc=);strokeColor=none;strokeWidth=4;spacingTop=-2;spacingBottom=-2;spacingLeft=-2;spacingRight=-2;points=[];labelBackgroundColor=none;rounded=0;html=1;whiteSpace=wrap;" vertex="1" parent="WIyWlLk6GJQsqaUBKTNV-1">
            <mxGeometry x="4554" y="4586.4" width="60" height="20" as="geometry" />
          </mxCell>
        </UserObject>
        <UserObject label="&lt;div style=&quot;font-size: 1px&quot;&gt;&lt;font style=&quot;font-size:11.29px;font-family:Arial;color:#000000;direction:ltr;letter-spacing:0px;line-height:120%;opacity:1&quot;&gt;&lt;i&gt;Дата&lt;br/&gt;&lt;/i&gt;&lt;/font&gt;&lt;/div&gt;" tags="Фон" id="cRIQFE2jVJvkHg1aeFsc-333">
          <mxCell style="verticalAlign=middle;align=center;overflow=width;vsdxID=353;fillColor=none;gradientColor=none;shape=stencil(nZBLDoAgDERP0z3SIyjew0SURgSD+Lu9kMZoXLhwN9O+tukAlrNpJg1SzDH4QW/URgNYgZTkjA4UkwJUgGXng+6DX1zLfmoymdXo17xh5zmRJ6Q42BWCfc2oJfdAr+Yv+AP9Cb7OJ3H/2JG1HNGz/84klThPVCc=);strokeColor=none;strokeWidth=4;spacingTop=-2;spacingBottom=-2;spacingLeft=-2;spacingRight=-2;points=[];labelBackgroundColor=none;rounded=0;html=1;whiteSpace=wrap;" vertex="1" parent="WIyWlLk6GJQsqaUBKTNV-1">
            <mxGeometry x="4613" y="4586.4" width="40" height="19" as="geometry" />
          </mxCell>
        </UserObject>
        <UserObject label="&lt;div style=&quot;font-size: 1px&quot;&gt;&lt;font style=&quot;font-size:11.29px;font-family:Arial;color:#000000;direction:ltr;letter-spacing:0px;line-height:120%;opacity:1&quot;&gt;&lt;i&gt;Разраб.&lt;br/&gt;&lt;/i&gt;&lt;/font&gt;&lt;/div&gt;" tags="Фон" id="cRIQFE2jVJvkHg1aeFsc-334">
          <mxCell style="verticalAlign=middle;align=center;overflow=width;vsdxID=354;fillColor=none;gradientColor=none;shape=stencil(nZBLDoAgDERP0z3SIyjew0SURgSD+Lu9kMZoXLhwN9O+tukAlrNpJg1SzDH4QW/URgNYgZTkjA4UkwJUgGXng+6DX1zLfmoymdXo17xh5zmRJ6Q42BWCfc2oJfdAr+Yv+AP9Cb7OJ3H/2JG1HNGz/84klThPVCc=);strokeColor=none;spacingTop=-2;spacingBottom=-2;spacingLeft=-2;spacingRight=-2;points=[];labelBackgroundColor=none;rounded=0;html=1;whiteSpace=wrap;" vertex="1" parent="WIyWlLk6GJQsqaUBKTNV-1">
            <mxGeometry x="4384" y="4606.4" width="68" height="20" as="geometry" />
          </mxCell>
        </UserObject>
        <UserObject label="&lt;div style=&quot;font-size: 1px&quot;&gt;&lt;font style=&quot;font-size:11.29px;font-family:Arial;color:#000000;direction:ltr;letter-spacing:0px;line-height:120%;opacity:1&quot;&gt;&lt;i&gt;Пров.&lt;br/&gt;&lt;/i&gt;&lt;/font&gt;&lt;/div&gt;" tags="Фон" id="cRIQFE2jVJvkHg1aeFsc-335">
          <mxCell style="verticalAlign=middle;align=center;overflow=width;vsdxID=355;fillColor=none;gradientColor=none;shape=stencil(nZBLDoAgDERP0z3SIyjew0SURgSD+Lu9kMZoXLhwN9O+tukAlrNpJg1SzDH4QW/URgNYgZTkjA4UkwJUgGXng+6DX1zLfmoymdXo17xh5zmRJ6Q42BWCfc2oJfdAr+Yv+AP9Cb7OJ3H/2JG1HNGz/84klThPVCc=);strokeColor=none;spacingTop=-2;spacingBottom=-2;spacingLeft=-2;spacingRight=-2;points=[];labelBackgroundColor=none;rounded=0;html=1;whiteSpace=wrap;" vertex="1" parent="WIyWlLk6GJQsqaUBKTNV-1">
            <mxGeometry x="4380" y="4626.4" width="68" height="20" as="geometry" />
          </mxCell>
        </UserObject>
        <UserObject label="&lt;div style=&quot;font-size: 1px&quot;&gt;&lt;p style=&quot;text-align:left;margin-left:0;margin-right:0;margin-top:0px;margin-bottom:0px;text-indent:0;vertical-align:middle;direction:ltr;&quot;&gt;&lt;font style=&quot;font-size:11.29px;font-family:Arial;color:#000000;direction:ltr;letter-spacing:0px;line-height:120%;opacity:1&quot;&gt;&lt;i&gt;Богдан&lt;/i&gt;&lt;/font&gt;&lt;/p&gt;&lt;/div&gt;" tags="Фон" id="cRIQFE2jVJvkHg1aeFsc-336">
          <mxCell style="verticalAlign=middle;align=left;overflow=width;vsdxID=357;fillColor=none;gradientColor=none;shape=stencil(nZBLDoAgDERP0z3SIyjew0SURgSD+Lu9kMZoXLhwN9O+tukAlrNpJg1SzDH4QW/URgNYgZTkjA4UkwJUgGXng+6DX1zLfmoymdXo17xh5zmRJ6Q42BWCfc2oJfdAr+Yv+AP9Cb7OJ3H/2JG1HNGz/84klThPVCc=);strokeColor=none;spacingTop=-2;spacingBottom=-2;spacingLeft=-2;spacingRight=-2;points=[];labelBackgroundColor=none;rounded=0;html=1;whiteSpace=wrap;" vertex="1" parent="WIyWlLk6GJQsqaUBKTNV-1">
            <mxGeometry x="4465" y="4626.4" width="91" height="20" as="geometry" />
          </mxCell>
        </UserObject>
        <UserObject label="" tags="Фон" id="cRIQFE2jVJvkHg1aeFsc-337">
          <mxCell style="vsdxID=359;edgeStyle=none;startArrow=none;endArrow=none;startSize=3;endSize=3;strokeWidth=4;spacingTop=-2;spacingBottom=-2;spacingLeft=-2;spacingRight=-2;verticalAlign=middle;html=1;labelBackgroundColor=#ffffff;rounded=0;" edge="1" parent="WIyWlLk6GJQsqaUBKTNV-1">
            <mxGeometry relative="1" as="geometry">
              <mxPoint as="offset" />
              <Array as="points" />
              <mxPoint x="4394" y="3640.3999999999996" as="sourcePoint" />
              <mxPoint x="5132" y="3640.3999999999996" as="targetPoint" />
            </mxGeometry>
          </mxCell>
        </UserObject>
        <UserObject label="" tags="Фон" id="cRIQFE2jVJvkHg1aeFsc-338">
          <mxCell style="vsdxID=361;edgeStyle=none;startArrow=none;endArrow=none;startSize=3;endSize=3;strokeWidth=4;spacingTop=-2;spacingBottom=-2;spacingLeft=-2;spacingRight=-2;verticalAlign=middle;html=1;labelBackgroundColor=#ffffff;rounded=0;" edge="1" parent="WIyWlLk6GJQsqaUBKTNV-1">
            <mxGeometry relative="1" as="geometry">
              <Array as="points" />
              <mxPoint x="5134" y="4506.4" as="sourcePoint" />
              <mxPoint x="5134" y="3640.3999999999996" as="targetPoint" />
            </mxGeometry>
          </mxCell>
        </UserObject>
        <UserObject label="" tags="Фон" id="cRIQFE2jVJvkHg1aeFsc-339">
          <mxCell style="vsdxID=363;edgeStyle=none;startArrow=none;endArrow=none;startSize=3;endSize=3;strokeWidth=4;spacingTop=-2;spacingBottom=-2;spacingLeft=-2;spacingRight=-2;verticalAlign=middle;html=1;labelBackgroundColor=#ffffff;rounded=0;" edge="1" parent="WIyWlLk6GJQsqaUBKTNV-1">
            <mxGeometry relative="1" as="geometry">
              <Array as="points" />
              <mxPoint x="5079" y="3917.3999999999996" as="sourcePoint" />
              <mxPoint x="5134" y="3917.3999999999996" as="targetPoint" />
            </mxGeometry>
          </mxCell>
        </UserObject>
        <UserObject label="&lt;div style=&quot;font-size: 1px&quot;&gt;&lt;font style=&quot;font-size:25.4px;font-family:Arial;color:#000000;direction:ltr;letter-spacing:0px;line-height:120%;opacity:1&quot;&gt;&lt;i&gt;ГУИР.400201&lt;/i&gt;&lt;/font&gt;&lt;font style=&quot;font-size:25.4px;font-family:Arial;color:#000000;direction:ltr;letter-spacing:0px;line-height:120%;opacity:1&quot;&gt;&lt;i&gt;.303 PP&lt;/i&gt;&lt;/font&gt;&lt;/div&gt;" tags="Фон" id="cRIQFE2jVJvkHg1aeFsc-340">
          <mxCell style="verticalAlign=middle;align=center;overflow=width;vsdxID=364;rotation=90;fillColor=none;gradientColor=none;shape=stencil(nZBLDoAgDERP0z3SIyjew0SURgSD+Lu9kMZoXLhwN9O+tukAlrNpJg1SzDH4QW/URgNYgZTkjA4UkwJUgGXng+6DX1zLfmoymdXo17xh5zmRJ6Q42BWCfc2oJfdAr+Yv+AP9Cb7OJ3H/2JG1HNGz/84klThPVCc=);strokeColor=none;spacingTop=-2;spacingBottom=-2;spacingLeft=-2;spacingRight=-2;points=[];labelBackgroundColor=none;rounded=0;html=1;whiteSpace=wrap;" vertex="1" parent="WIyWlLk6GJQsqaUBKTNV-1">
            <mxGeometry x="4970" y="3745.3999999999996" width="276" height="68" as="geometry" />
          </mxCell>
        </UserObject>
        <UserObject label="&lt;div style=&quot;&quot;&gt;&lt;p style=&quot;text-align: center; margin: 0px; text-indent: 0px; vertical-align: middle; direction: ltr;&quot;&gt;&lt;font face=&quot;Arial-ItalicMT&quot;&gt;&lt;span style=&quot;font-size: 19.76px;&quot;&gt;&lt;i&gt;Диаграмма классов&lt;/i&gt;&lt;/span&gt;&lt;/font&gt;&lt;/p&gt;&lt;/div&gt;" tags="Фон" id="cRIQFE2jVJvkHg1aeFsc-341">
          <mxCell style="verticalAlign=middle;align=center;overflow=width;vsdxID=409;fillColor=none;gradientColor=none;shape=stencil(nZBLDoAgDERP0z3SIyjew0SURgSD+Lu9kMZoXLhwN9O+tukAlrNpJg1SzDH4QW/URgNYgZTkjA4UkwJUgGXng+6DX1zLfmoymdXo17xh5zmRJ6Q42BWCfc2oJfdAr+Yv+AP9Cb7OJ3H/2JG1HNGz/84klThPVCc=);strokeColor=none;spacingTop=-2;spacingBottom=-2;spacingLeft=-2;spacingRight=-2;points=[];labelBackgroundColor=none;rounded=0;html=1;whiteSpace=wrap;" vertex="1" parent="WIyWlLk6GJQsqaUBKTNV-1">
            <mxGeometry x="4654" y="4567.4" width="280" height="98" as="geometry" />
          </mxCell>
        </UserObject>
        <UserObject label="&lt;div style=&quot;font-size: 1px&quot;&gt;&lt;font style=&quot;font-size:14.11px;font-family:Arial;color:#000000;direction:ltr;letter-spacing:0px;line-height:120%;opacity:1&quot;&gt;&lt;i&gt;&lt;br&gt;&lt;/i&gt;&lt;/font&gt;&lt;/div&gt;" tags="Фон" id="cRIQFE2jVJvkHg1aeFsc-342">
          <mxCell style="verticalAlign=middle;align=center;overflow=width;vsdxID=695;fillColor=none;gradientColor=none;shape=stencil(nZBLDoAgDERP0z3SIyjew0SURgSD+Lu9kMZoXLhwN9O+tukAlrNpJg1SzDH4QW/URgNYgZTkjA4UkwJUgGXng+6DX1zLfmoymdXo17xh5zmRJ6Q42BWCfc2oJfdAr+Yv+AP9Cb7OJ3H/2JG1HNGz/84klThPVCc=);strokeColor=none;spacingTop=-2;spacingBottom=-2;spacingLeft=-2;spacingRight=-2;points=[];labelBackgroundColor=none;rounded=0;html=1;whiteSpace=wrap;" vertex="1" parent="WIyWlLk6GJQsqaUBKTNV-1">
            <mxGeometry x="5055" y="4586.4" width="77" height="61" as="geometry" />
          </mxCell>
        </UserObject>
        <UserObject label="" tags="Фон" id="cRIQFE2jVJvkHg1aeFsc-343">
          <mxCell style="vsdxID=1512;edgeStyle=none;startArrow=none;endArrow=none;startSize=3;endSize=3;spacingTop=-2;spacingBottom=-2;spacingLeft=-2;spacingRight=-2;verticalAlign=middle;html=1;labelBackgroundColor=#ffffff;rounded=0;" edge="1" parent="WIyWlLk6GJQsqaUBKTNV-1">
            <mxGeometry relative="1" as="geometry">
              <Array as="points" />
              <mxPoint x="4954" y="4588.4" as="sourcePoint" />
              <mxPoint x="4954" y="4644.4" as="targetPoint" />
            </mxGeometry>
          </mxCell>
        </UserObject>
        <UserObject label="" tags="Фон" id="cRIQFE2jVJvkHg1aeFsc-344">
          <mxCell style="vsdxID=1513;edgeStyle=none;startArrow=none;endArrow=none;startSize=3;endSize=3;spacingTop=-2;spacingBottom=-2;spacingLeft=-2;spacingRight=-2;verticalAlign=middle;html=1;labelBackgroundColor=#ffffff;rounded=0;" edge="1" parent="WIyWlLk6GJQsqaUBKTNV-1">
            <mxGeometry relative="1" as="geometry">
              <Array as="points" />
              <mxPoint x="4974" y="4588.4" as="sourcePoint" />
              <mxPoint x="4974" y="4645.4" as="targetPoint" />
            </mxGeometry>
          </mxCell>
        </UserObject>
        <UserObject label="&lt;div style=&quot;&quot;&gt;&lt;p style=&quot;text-align: left; margin: 0px; text-indent: 0px; vertical-align: middle; direction: ltr;&quot;&gt;&lt;font face=&quot;Arial&quot;&gt;&lt;span style=&quot;font-size: 11.29px;&quot;&gt;&lt;i&gt;Георгиев&lt;/i&gt;&lt;/span&gt;&lt;/font&gt;&lt;/p&gt;&lt;/div&gt;" tags="Фон" id="cRIQFE2jVJvkHg1aeFsc-345">
          <mxCell style="verticalAlign=middle;align=left;overflow=width;vsdxID=356;fillColor=none;gradientColor=none;shape=stencil(nZBLDoAgDERP0z3SIyjew0SURgSD+Lu9kMZoXLhwN9O+tukAlrNpJg1SzDH4QW/URgNYgZTkjA4UkwJUgGXng+6DX1zLfmoymdXo17xh5zmRJ6Q42BWCfc2oJfdAr+Yv+AP9Cb7OJ3H/2JG1HNGz/84klThPVCc=);strokeColor=none;spacingTop=-2;spacingBottom=-2;spacingLeft=-2;spacingRight=-2;points=[];labelBackgroundColor=none;rounded=0;html=1;whiteSpace=wrap;" vertex="1" parent="WIyWlLk6GJQsqaUBKTNV-1">
            <mxGeometry x="4464" y="4607.4" width="91" height="20" as="geometry" />
          </mxCell>
        </UserObject>
        <UserObject label="" tags="Фон" id="cRIQFE2jVJvkHg1aeFsc-346">
          <mxCell style="vsdxID=1085;edgeStyle=none;startArrow=none;endArrow=none;startSize=3;endSize=3;spacingTop=-2;spacingBottom=-2;spacingLeft=-2;spacingRight=-2;verticalAlign=middle;html=1;labelBackgroundColor=#ffffff;rounded=0;" edge="1" parent="WIyWlLk6GJQsqaUBKTNV-1">
            <mxGeometry relative="1" as="geometry">
              <mxPoint as="offset" />
              <Array as="points" />
              <mxPoint x="4410" y="4506.4" as="sourcePoint" />
              <mxPoint x="4430" y="4506.4" as="targetPoint" />
            </mxGeometry>
          </mxCell>
        </UserObject>
        <UserObject label="&lt;div style=&quot;font-size: 1px&quot;&gt;&lt;font style=&quot;font-size:14.11px;font-family:Arial;color:#000000;direction:ltr;letter-spacing:0px;line-height:120%;opacity:1&quot;&gt;&lt;i&gt;У&lt;br/&gt;&lt;/i&gt;&lt;/font&gt;&lt;/div&gt;" tags="Фон" id="cRIQFE2jVJvkHg1aeFsc-347">
          <mxCell style="verticalAlign=middle;align=center;overflow=width;vsdxID=3040;fillColor=none;gradientColor=none;shape=stencil(nZBLDoAgDERP0z3SIyjew0SURgSD+Lu9kMZoXLhwN9O+tukAlrNpJg1SzDH4QW/URgNYgZTkjA4UkwJUgGXng+6DX1zLfmoymdXo17xh5zmRJ6Q42BWCfc2oJfdAr+Yv+AP9Cb7OJ3H/2JG1HNGz/84klThPVCc=);strokeColor=none;points=[];labelBackgroundColor=none;rounded=0;html=1;whiteSpace=wrap;" vertex="1" parent="WIyWlLk6GJQsqaUBKTNV-1">
            <mxGeometry x="4934" y="4608.4" width="56" height="16" as="geometry" />
          </mxCell>
        </UserObject>
        <UserObject label="&lt;div style=&quot;font-size: 1px&quot;&gt;&lt;p style=&quot;text-align:right;margin-left:0;margin-right:0;margin-top:0px;margin-bottom:0px;text-indent:0;vertical-align:middle;direction:ltr;&quot;&gt;&lt;font style=&quot;font-size:8.47px;font-family:Arial;color:#000000;direction:ltr;letter-spacing:0px;line-height:120%;opacity:1&quot;&gt;&lt;i&gt;Формат А4&lt;/i&gt;&lt;/font&gt;&lt;font style=&quot;font-size:8.47px;font-family:Arial;color:#000000;direction:ltr;letter-spacing:0px;line-height:120%;opacity:1&quot;&gt;&lt;i&gt;&lt;br/&gt;&lt;/i&gt;&lt;/font&gt;&lt;/p&gt;&lt;/div&gt;" tags="Фон" id="cRIQFE2jVJvkHg1aeFsc-348">
          <mxCell style="verticalAlign=middle;align=right;overflow=width;vsdxID=3042;fillColor=none;gradientColor=none;shape=stencil(nZBLDoAgDERP0z3SIyjew0SURgSD+Lu9kMZoXLhwN9O+tukAlrNpJg1SzDH4QW/URgNYgZTkjA4UkwJUgGXng+6DX1zLfmoymdXo17xh5zmRJ6Q42BWCfc2oJfdAr+Yv+AP9Cb7OJ3H/2JG1HNGz/84klThPVCc=);strokeColor=none;strokeWidth=4;spacingTop=-1;spacingBottom=-1;spacingLeft=-1;spacingRight=-1;points=[];labelBackgroundColor=none;rounded=0;html=1;whiteSpace=wrap;" vertex="1" parent="WIyWlLk6GJQsqaUBKTNV-1">
            <mxGeometry x="5079" y="4727.4" width="54" height="10" as="geometry" />
          </mxCell>
        </UserObject>
        <UserObject label="" tags="Фон" id="cRIQFE2jVJvkHg1aeFsc-349">
          <mxCell style="vsdxID=3039;edgeStyle=none;startArrow=none;endArrow=none;startSize=3;endSize=3;strokeWidth=4;spacingTop=-2;spacingBottom=-2;spacingLeft=-2;spacingRight=-2;verticalAlign=middle;html=1;labelBackgroundColor=#ffffff;rounded=0;exitX=0.6381909547738693;exitY=1;exitDx=0;exitDy=0;exitPerimeter=0;entryX=1.0050251256281406;entryY=1;entryDx=0;entryDy=0;entryPerimeter=0;" edge="1" parent="WIyWlLk6GJQsqaUBKTNV-1" source="cRIQFE2jVJvkHg1aeFsc-328" target="cRIQFE2jVJvkHg1aeFsc-328">
            <mxGeometry relative="1" as="geometry">
              <mxPoint as="offset" />
              <Array as="points" />
            </mxGeometry>
          </mxCell>
        </UserObject>
        <mxCell id="cRIQFE2jVJvkHg1aeFsc-350" vertex="1" parent="WIyWlLk6GJQsqaUBKTNV-1">
          <mxGeometry x="4394" y="4511.4" as="geometry" />
        </mxCell>
        <mxCell id="cRIQFE2jVJvkHg1aeFsc-351" vertex="1" parent="WIyWlLk6GJQsqaUBKTNV-1">
          <mxGeometry x="4394" y="3640.3999999999996" as="geometry" />
        </mxCell>
        <UserObject label="" tags="Фон" id="cRIQFE2jVJvkHg1aeFsc-352">
          <mxCell style="vsdxID=358;edgeStyle=none;startArrow=none;endArrow=none;startSize=3;endSize=3;strokeWidth=4;spacingTop=-2;spacingBottom=-2;spacingLeft=-2;spacingRight=-2;verticalAlign=middle;html=1;labelBackgroundColor=#ffffff;rounded=0;" edge="1" parent="WIyWlLk6GJQsqaUBKTNV-1" source="cRIQFE2jVJvkHg1aeFsc-350" target="cRIQFE2jVJvkHg1aeFsc-351">
            <mxGeometry relative="1" as="geometry">
              <Array as="points">
                <mxPoint x="4394" y="4511.4" />
                <mxPoint x="4394" y="3640" />
              </Array>
            </mxGeometry>
          </mxCell>
        </UserObject>
        <mxCell id="cRIQFE2jVJvkHg1aeFsc-353" vertex="1" parent="WIyWlLk6GJQsqaUBKTNV-1">
          <mxGeometry x="5079" y="3640.3999999999996" as="geometry" />
        </mxCell>
        <mxCell id="cRIQFE2jVJvkHg1aeFsc-354" vertex="1" parent="WIyWlLk6GJQsqaUBKTNV-1">
          <mxGeometry x="5079" y="3917.3999999999996" as="geometry" />
        </mxCell>
        <UserObject label="" tags="Фон" id="cRIQFE2jVJvkHg1aeFsc-355">
          <mxCell style="vsdxID=362;edgeStyle=none;startArrow=none;endArrow=none;startSize=3;endSize=3;strokeWidth=4;spacingTop=-2;spacingBottom=-2;spacingLeft=-2;spacingRight=-2;verticalAlign=middle;html=1;labelBackgroundColor=#ffffff;rounded=0;" edge="1" parent="WIyWlLk6GJQsqaUBKTNV-1" source="cRIQFE2jVJvkHg1aeFsc-353" target="cRIQFE2jVJvkHg1aeFsc-354">
            <mxGeometry relative="1" as="geometry">
              <Array as="points">
                <mxPoint x="5079" y="3640.3999999999996" />
                <mxPoint x="5078.8" y="3918.2000000000007" />
              </Array>
            </mxGeometry>
          </mxCell>
        </UserObject>
        <UserObject label="" tags="Соединительная_линия" id="cRIQFE2jVJvkHg1aeFsc-356">
          <mxCell vertex="1" visible="0" parent="WIyWlLk6GJQsqaUBKTNV-1">
            <mxGeometry x="8380" y="4180" as="geometry" />
          </mxCell>
        </UserObject>
        <mxCell id="cRIQFE2jVJvkHg1aeFsc-357" value="" style="rounded=0;whiteSpace=wrap;html=1;" vertex="1" parent="WIyWlLk6GJQsqaUBKTNV-1">
          <mxGeometry x="4461.5" y="3685.3999999999996" width="198" height="28.6" as="geometry" />
        </mxCell>
        <mxCell id="cRIQFE2jVJvkHg1aeFsc-358" value="&lt;div style=&quot;line-height: 19px; font-size: 11px;&quot;&gt;&lt;div style=&quot;&quot;&gt;&lt;font face=&quot;Helvetica&quot; style=&quot;background-color: rgb(255, 255, 255); font-size: 11px;&quot;&gt;Snake snake;&lt;/font&gt;&lt;/div&gt;&lt;div style=&quot;&quot;&gt;&lt;font face=&quot;s0f6Or-37IBILEwC1DBG&quot; style=&quot;background-color: rgb(255, 255, 255); font-size: 11px;&quot;&gt;Snake snake2;&lt;/font&gt;&lt;/div&gt;&lt;div style=&quot;&quot;&gt;&lt;font face=&quot;s0f6Or-37IBILEwC1DBG&quot; style=&quot;background-color: rgb(255, 255, 255); font-size: 11px;&quot;&gt;Walls wall;&lt;/font&gt;&lt;/div&gt;&lt;div style=&quot;&quot;&gt;&lt;font face=&quot;s0f6Or-37IBILEwC1DBG&quot; style=&quot;background-color: rgb(255, 255, 255); font-size: 11px;&quot;&gt;Food food;&lt;/font&gt;&lt;/div&gt;&lt;div style=&quot;&quot;&gt;&lt;span style=&quot;background-color: rgb(255, 255, 255); font-family: s0f6Or-37IBILEwC1DBG;&quot;&gt;bool running;&lt;/span&gt;&lt;/div&gt;&lt;div style=&quot;&quot;&gt;&lt;font face=&quot;s0f6Or-37IBILEwC1DBG&quot; style=&quot;background-color: rgb(255, 255, 255); font-size: 11px;&quot;&gt;int score;&lt;/font&gt;&lt;/div&gt;&lt;div style=&quot;&quot;&gt;&lt;font face=&quot;s0f6Or-37IBILEwC1DBG&quot; style=&quot;background-color: rgb(255, 255, 255); font-size: 11px;&quot;&gt;int score2;&lt;/font&gt;&lt;/div&gt;&lt;div style=&quot;&quot;&gt;&lt;font face=&quot;s0f6Or-37IBILEwC1DBG&quot; style=&quot;background-color: rgb(255, 255, 255); font-size: 11px;&quot;&gt;Sound eatFoodSound;&lt;/font&gt;&lt;/div&gt;&lt;div style=&quot;&quot;&gt;&lt;font face=&quot;s0f6Or-37IBILEwC1DBG&quot; style=&quot;background-color: rgb(255, 255, 255); font-size: 11px;&quot;&gt;Sound wallCollideSound;&lt;/font&gt;&lt;/div&gt;&lt;div style=&quot;&quot;&gt;&lt;span style=&quot;background-color: rgb(255, 255, 255); font-family: s0f6Or-37IBILEwC1DBG;&quot;&gt;Color darkGreen;&lt;/span&gt;&lt;/div&gt;&lt;div style=&quot;&quot;&gt;&lt;font face=&quot;s0f6Or-37IBILEwC1DBG&quot; style=&quot;background-color: rgb(255, 255, 255); font-size: 11px;&quot;&gt;Color customRed;&lt;/font&gt;&lt;/div&gt;&lt;/div&gt;" style="rounded=0;whiteSpace=wrap;html=1;align=left;" vertex="1" parent="WIyWlLk6GJQsqaUBKTNV-1">
          <mxGeometry x="4461.5" y="3714" width="198" height="210" as="geometry" />
        </mxCell>
        <mxCell id="cRIQFE2jVJvkHg1aeFsc-359" value="&lt;div style=&quot;line-height: 19px; font-size: 11px;&quot;&gt;&lt;span style=&quot;background-color: rgb(255, 255, 255);&quot;&gt;&lt;font style=&quot;font-size: 11px;&quot; face=&quot;Helvetica&quot;&gt;Game()&lt;/font&gt;&lt;/span&gt;&lt;/div&gt;&lt;div style=&quot;line-height: 19px; font-size: 11px;&quot;&gt;&lt;span style=&quot;background-color: rgb(255, 255, 255);&quot;&gt;&lt;font style=&quot;font-size: 11px;&quot; face=&quot;B_vzu2Ztb2qkiQMpbzKf&quot;&gt;~Game()&lt;/font&gt;&lt;/span&gt;&lt;/div&gt;&lt;div style=&quot;line-height: 19px; font-size: 11px;&quot;&gt;&lt;div style=&quot;line-height: 19px;&quot;&gt;&lt;div style=&quot;line-height: 19px;&quot;&gt;&lt;span style=&quot;background-color: rgb(255, 255, 255);&quot;&gt;&lt;font style=&quot;font-size: 11px;&quot; face=&quot;B_vzu2Ztb2qkiQMpbzKf&quot;&gt;void changeFoodPos()&lt;/font&gt;&lt;/span&gt;&lt;/div&gt;&lt;div style=&quot;line-height: 19px;&quot;&gt;&lt;div style=&quot;line-height: 19px;&quot;&gt;&lt;span style=&quot;background-color: rgb(255, 255, 255);&quot;&gt;&lt;font style=&quot;font-size: 11px;&quot; face=&quot;B_vzu2Ztb2qkiQMpbzKf&quot;&gt;void Update()&lt;/font&gt;&lt;/span&gt;&lt;/div&gt;&lt;div style=&quot;line-height: 19px;&quot;&gt;&lt;div style=&quot;line-height: 19px;&quot;&gt;&lt;span style=&quot;background-color: rgb(255, 255, 255);&quot;&gt;&lt;font style=&quot;font-size: 11px;&quot; face=&quot;B_vzu2Ztb2qkiQMpbzKf&quot;&gt;void checkCollisionWithFood()&lt;/font&gt;&lt;/span&gt;&lt;/div&gt;&lt;div style=&quot;line-height: 19px;&quot;&gt;&lt;div style=&quot;line-height: 19px;&quot;&gt;&lt;span style=&quot;background-color: rgb(255, 255, 255);&quot;&gt;&lt;font style=&quot;font-size: 11px;&quot; face=&quot;B_vzu2Ztb2qkiQMpbzKf&quot;&gt;void checkCollisionWithEdges()&lt;/font&gt;&lt;/span&gt;&lt;/div&gt;&lt;div style=&quot;line-height: 19px;&quot;&gt;&lt;div style=&quot;line-height: 19px;&quot;&gt;&lt;span style=&quot;background-color: rgb(255, 255, 255);&quot;&gt;&lt;font style=&quot;font-size: 11px;&quot; face=&quot;B_vzu2Ztb2qkiQMpbzKf&quot;&gt;void gameOver()&lt;/font&gt;&lt;/span&gt;&lt;/div&gt;&lt;div style=&quot;line-height: 19px;&quot;&gt;&lt;div style=&quot;line-height: 19px;&quot;&gt;&lt;span style=&quot;background-color: rgb(255, 255, 255);&quot;&gt;&lt;font style=&quot;font-size: 11px;&quot; face=&quot;B_vzu2Ztb2qkiQMpbzKf&quot;&gt;void resetSnake()&lt;/font&gt;&lt;/span&gt;&lt;/div&gt;&lt;div style=&quot;line-height: 19px;&quot;&gt;&lt;div style=&quot;line-height: 19px;&quot;&gt;&lt;span style=&quot;background-color: rgb(255, 255, 255);&quot;&gt;&lt;font style=&quot;font-size: 11px;&quot; face=&quot;B_vzu2Ztb2qkiQMpbzKf&quot;&gt;void win()&lt;/font&gt;&lt;/span&gt;&lt;/div&gt;&lt;div style=&quot;line-height: 19px;&quot;&gt;&lt;div style=&quot;line-height: 19px;&quot;&gt;&lt;span style=&quot;background-color: rgb(255, 255, 255);&quot;&gt;&lt;font style=&quot;font-size: 11px;&quot; face=&quot;B_vzu2Ztb2qkiQMpbzKf&quot;&gt;void checkCollisionWithSnake()&lt;/font&gt;&lt;/span&gt;&lt;/div&gt;&lt;div style=&quot;line-height: 19px;&quot;&gt;&lt;div style=&quot;line-height: 19px;&quot;&gt;&lt;span style=&quot;background-color: rgb(255, 255, 255);&quot;&gt;&lt;font style=&quot;font-size: 11px;&quot; face=&quot;B_vzu2Ztb2qkiQMpbzKf&quot;&gt;void checkCollisionWithTail()&lt;/font&gt;&lt;/span&gt;&lt;/div&gt;&lt;div style=&quot;line-height: 19px;&quot;&gt;&lt;div style=&quot;line-height: 19px;&quot;&gt;&lt;span style=&quot;background-color: rgb(255, 255, 255);&quot;&gt;&lt;font style=&quot;font-size: 11px;&quot; face=&quot;B_vzu2Ztb2qkiQMpbzKf&quot;&gt;void checkCollisionWithWalls()&lt;/font&gt;&lt;/span&gt;&lt;/div&gt;&lt;div style=&quot;line-height: 19px;&quot;&gt;&lt;span style=&quot;background-color: rgb(255, 255, 255);&quot;&gt;&lt;font style=&quot;font-size: 11px;&quot; face=&quot;B_vzu2Ztb2qkiQMpbzKf&quot;&gt;void snakeAI()&amp;nbsp;&lt;/font&gt;&lt;/span&gt;&lt;/div&gt;&lt;/div&gt;&lt;/div&gt;&lt;/div&gt;&lt;/div&gt;&lt;/div&gt;&lt;/div&gt;&lt;/div&gt;&lt;/div&gt;&lt;/div&gt;&lt;/div&gt;&lt;/div&gt;" style="rounded=0;whiteSpace=wrap;html=1;align=left;" vertex="1" parent="WIyWlLk6GJQsqaUBKTNV-1">
          <mxGeometry x="4461" y="3924" width="198.5" height="250" as="geometry" />
        </mxCell>
        <mxCell id="cRIQFE2jVJvkHg1aeFsc-360" value="&lt;b&gt;Game&lt;/b&gt;" style="text;html=1;strokeColor=none;fillColor=none;align=center;verticalAlign=middle;whiteSpace=wrap;rounded=0;fontFamily=Helvetica;fontSize=11;" vertex="1" parent="WIyWlLk6GJQsqaUBKTNV-1">
          <mxGeometry x="4529.5" y="3684" width="60" height="30" as="geometry" />
        </mxCell>
        <mxCell id="cRIQFE2jVJvkHg1aeFsc-361" value="" style="rounded=0;whiteSpace=wrap;html=1;" vertex="1" parent="WIyWlLk6GJQsqaUBKTNV-1">
          <mxGeometry x="4792" y="3685.3999999999996" width="198" height="28.6" as="geometry" />
        </mxCell>
        <mxCell id="cRIQFE2jVJvkHg1aeFsc-362" value="&lt;div style=&quot;line-height: 19px; font-size: 11px;&quot;&gt;&lt;div style=&quot;&quot;&gt;&lt;span style=&quot;background-color: rgb(255, 255, 255);&quot;&gt;&lt;font style=&quot;font-size: 11px;&quot; face=&quot;Helvetica&quot;&gt;Vector2 position;&lt;/font&gt;&lt;/span&gt;&lt;/div&gt;&lt;div style=&quot;&quot;&gt;&lt;span style=&quot;background-color: rgb(255, 255, 255);&quot;&gt;&lt;font style=&quot;font-size: 11px;&quot; face=&quot;Bn555RTpUMtqNR19v6S2&quot;&gt;Texture2D texture;&lt;/font&gt;&lt;/span&gt;&lt;/div&gt;&lt;/div&gt;" style="rounded=0;whiteSpace=wrap;html=1;align=left;" vertex="1" parent="WIyWlLk6GJQsqaUBKTNV-1">
          <mxGeometry x="4792" y="3714" width="198" height="50" as="geometry" />
        </mxCell>
        <mxCell id="cRIQFE2jVJvkHg1aeFsc-363" value="&lt;div style=&quot;line-height: 19px; font-size: 11px;&quot;&gt;&lt;span style=&quot;background-color: rgb(255, 255, 255);&quot;&gt;&lt;font style=&quot;font-size: 11px;&quot; face=&quot;Helvetica&quot;&gt;Food (deque&amp;lt;Vector2&amp;gt; snakeBody, deque&amp;lt;Vector2&amp;gt; wall)&lt;/font&gt;&lt;/span&gt;&lt;/div&gt;&lt;div style=&quot;line-height: 19px; font-size: 11px;&quot;&gt;&lt;div style=&quot;line-height: 19px;&quot;&gt;&lt;span style=&quot;background-color: rgb(255, 255, 255);&quot;&gt;&lt;font style=&quot;font-size: 11px;&quot; face=&quot;qb9Bew9LIMVPZpMlFAr9&quot;&gt;~Food()&lt;/font&gt;&lt;/span&gt;&lt;/div&gt;&lt;div style=&quot;line-height: 19px;&quot;&gt;&lt;div style=&quot;line-height: 19px;&quot;&gt;&lt;span style=&quot;background-color: rgb(255, 255, 255);&quot;&gt;&lt;font style=&quot;font-size: 11px;&quot; face=&quot;qb9Bew9LIMVPZpMlFAr9&quot;&gt;void drawFood()&lt;/font&gt;&lt;/span&gt;&lt;/div&gt;&lt;div style=&quot;line-height: 19px;&quot;&gt;&lt;div style=&quot;line-height: 19px;&quot;&gt;&lt;span style=&quot;background-color: rgb(255, 255, 255);&quot;&gt;&lt;font style=&quot;font-size: 11px;&quot; face=&quot;qb9Bew9LIMVPZpMlFAr9&quot;&gt;Vector2 GenerateRandomCell()&lt;/font&gt;&lt;/span&gt;&lt;/div&gt;&lt;div style=&quot;line-height: 19px;&quot;&gt;&lt;div style=&quot;line-height: 19px;&quot;&gt;&lt;span style=&quot;background-color: rgb(255, 255, 255);&quot;&gt;&lt;font style=&quot;font-size: 11px;&quot; face=&quot;qb9Bew9LIMVPZpMlFAr9&quot;&gt;Vector2&lt;/font&gt;&lt;/span&gt;&lt;/div&gt;&lt;div style=&quot;line-height: 19px;&quot;&gt;&lt;span style=&quot;font-family: qb9Bew9LIMVPZpMlFAr9; background-color: rgb(255, 255, 255);&quot;&gt;GenerateRandomPos(deque&amp;lt;Vector2&amp;gt; snakeBody, deque&amp;lt;Vector2&amp;gt; wall)&lt;/span&gt;&lt;/div&gt;&lt;/div&gt;&lt;/div&gt;&lt;/div&gt;&lt;/div&gt;" style="rounded=0;whiteSpace=wrap;html=1;align=left;" vertex="1" parent="WIyWlLk6GJQsqaUBKTNV-1">
          <mxGeometry x="4792" y="3764" width="198" height="160" as="geometry" />
        </mxCell>
        <mxCell id="cRIQFE2jVJvkHg1aeFsc-364" value="&lt;b&gt;Food&lt;/b&gt;" style="text;html=1;strokeColor=none;fillColor=none;align=center;verticalAlign=middle;whiteSpace=wrap;rounded=0;fontFamily=Helvetica;fontSize=11;" vertex="1" parent="WIyWlLk6GJQsqaUBKTNV-1">
          <mxGeometry x="4860" y="3684" width="60" height="30" as="geometry" />
        </mxCell>
        <mxCell id="cRIQFE2jVJvkHg1aeFsc-365" value="" style="rounded=0;whiteSpace=wrap;html=1;" vertex="1" parent="WIyWlLk6GJQsqaUBKTNV-1">
          <mxGeometry x="4461" y="4215.4" width="198" height="28.6" as="geometry" />
        </mxCell>
        <mxCell id="cRIQFE2jVJvkHg1aeFsc-366" value="&lt;div style=&quot;font-family: Consolas, &amp;quot;Courier New&amp;quot;, monospace; line-height: 19px; font-size: 11px;&quot;&gt;&lt;span style=&quot;background-color: rgb(255, 255, 255); font-size: 11px;&quot;&gt;&lt;font style=&quot;font-size: 11px;&quot;&gt;deque&amp;lt;V&amp;gt; wall;&lt;/font&gt;&lt;/span&gt;&lt;/div&gt;&lt;div style=&quot;line-height: 19px;&quot;&gt;&lt;div style=&quot;font-size: 11px; font-family: Consolas, &amp;quot;Courier New&amp;quot;, monospace; line-height: 19px;&quot;&gt;&lt;span style=&quot;background-color: rgb(255, 255, 255); font-size: 11px;&quot;&gt;&lt;font style=&quot;font-size: 11px;&quot;&gt;deque&amp;lt;V&amp;gt; map1;&lt;/font&gt;&lt;/span&gt;&lt;/div&gt;&lt;div style=&quot;line-height: 19px;&quot;&gt;&lt;div style=&quot;line-height: 19px;&quot;&gt;&lt;span style=&quot;background-color: rgb(255, 255, 255);&quot;&gt;&lt;font style=&quot;font-size: 11px;&quot; face=&quot;Helvetica&quot;&gt;int cellSizeWall;&lt;/font&gt;&lt;/span&gt;&lt;/div&gt;&lt;/div&gt;&lt;/div&gt;" style="rounded=0;whiteSpace=wrap;html=1;align=left;fontSize=11;" vertex="1" parent="WIyWlLk6GJQsqaUBKTNV-1">
          <mxGeometry x="4461" y="4244" width="198" height="70" as="geometry" />
        </mxCell>
        <mxCell id="cRIQFE2jVJvkHg1aeFsc-367" value="&lt;div style=&quot;font-size: 14px; line-height: 19px;&quot;&gt;&lt;span style=&quot;background-color: rgb(255, 255, 255); font-size: 11px;&quot;&gt;&lt;font style=&quot;font-size: 11px;&quot; face=&quot;Helvetica&quot;&gt;void drawWall(int i)&lt;/font&gt;&lt;/span&gt;&lt;/div&gt;" style="rounded=0;whiteSpace=wrap;html=1;align=left;" vertex="1" parent="WIyWlLk6GJQsqaUBKTNV-1">
          <mxGeometry x="4461" y="4314" width="198" height="40" as="geometry" />
        </mxCell>
        <mxCell id="cRIQFE2jVJvkHg1aeFsc-368" value="&lt;b&gt;Walls&lt;/b&gt;" style="text;html=1;strokeColor=none;fillColor=none;align=center;verticalAlign=middle;whiteSpace=wrap;rounded=0;fontFamily=Helvetica;fontSize=11;" vertex="1" parent="WIyWlLk6GJQsqaUBKTNV-1">
          <mxGeometry x="4529.5" y="4214.7" width="60" height="30" as="geometry" />
        </mxCell>
        <mxCell id="cRIQFE2jVJvkHg1aeFsc-369" value="" style="rounded=0;whiteSpace=wrap;html=1;" vertex="1" parent="WIyWlLk6GJQsqaUBKTNV-1">
          <mxGeometry x="4791" y="3985.3999999999996" width="198" height="28.6" as="geometry" />
        </mxCell>
        <mxCell id="cRIQFE2jVJvkHg1aeFsc-370" value="&lt;div style=&quot;line-height: 19px; font-size: 11px;&quot;&gt;&lt;span style=&quot;background-color: rgb(255, 255, 255);&quot;&gt;&lt;font style=&quot;font-size: 11px;&quot; face=&quot;Helvetica&quot;&gt;deque&amp;lt;Vector2&amp;gt; body&lt;/font&gt;&lt;/span&gt;&lt;/div&gt;&lt;div style=&quot;line-height: 19px; font-size: 11px;&quot;&gt;&lt;div style=&quot;line-height: 19px;&quot;&gt;&lt;span style=&quot;background-color: rgb(255, 255, 255);&quot;&gt;&lt;font style=&quot;font-size: 11px;&quot; face=&quot;M8Xt0jnmoyLMvSuwz0hx&quot;&gt;deque&amp;lt;Vector2&amp;gt; bodyStart&lt;/font&gt;&lt;/span&gt;&lt;/div&gt;&lt;div style=&quot;line-height: 19px;&quot;&gt;&lt;div style=&quot;line-height: 19px;&quot;&gt;&lt;span style=&quot;background-color: rgb(255, 255, 255);&quot;&gt;&lt;font style=&quot;font-size: 11px;&quot; face=&quot;M8Xt0jnmoyLMvSuwz0hx&quot;&gt;Vector2 direction&lt;/font&gt;&lt;/span&gt;&lt;/div&gt;&lt;div style=&quot;line-height: 19px;&quot;&gt;&lt;div style=&quot;line-height: 19px;&quot;&gt;&lt;span style=&quot;background-color: rgb(255, 255, 255);&quot;&gt;&lt;font style=&quot;font-size: 11px;&quot; face=&quot;M8Xt0jnmoyLMvSuwz0hx&quot;&gt;Vector2 directionStart&lt;/font&gt;&lt;/span&gt;&lt;/div&gt;&lt;/div&gt;&lt;/div&gt;&lt;/div&gt;" style="rounded=0;whiteSpace=wrap;html=1;align=left;" vertex="1" parent="WIyWlLk6GJQsqaUBKTNV-1">
          <mxGeometry x="4791" y="4014" width="198" height="80" as="geometry" />
        </mxCell>
        <mxCell id="cRIQFE2jVJvkHg1aeFsc-371" value="&lt;div style=&quot;line-height: 19px; font-size: 11px;&quot;&gt;&lt;div style=&quot;line-height: 19px;&quot;&gt;&lt;span style=&quot;background-color: rgb(255, 255, 255);&quot;&gt;&lt;font style=&quot;font-size: 11px;&quot; face=&quot;Helvetica&quot;&gt;void drawSnake(deque&amp;lt;Vector2&amp;gt; body, Color cvet)&lt;/font&gt;&lt;/span&gt;&lt;/div&gt;&lt;div style=&quot;line-height: 19px;&quot;&gt;&lt;div style=&quot;line-height: 19px;&quot;&gt;&lt;span style=&quot;background-color: rgb(255, 255, 255);&quot;&gt;&lt;font style=&quot;font-size: 11px;&quot; face=&quot;nydhZ2wx9oGQCC_KXY7f&quot;&gt;void Update(Vector2 direction)&lt;/font&gt;&lt;/span&gt;&lt;/div&gt;&lt;div style=&quot;line-height: 19px;&quot;&gt;&lt;div style=&quot;line-height: 19px;&quot;&gt;&lt;div style=&quot;line-height: 19px;&quot;&gt;&lt;span style=&quot;background-color: rgb(255, 255, 255);&quot;&gt;&lt;font style=&quot;font-size: 11px;&quot; face=&quot;nydhZ2wx9oGQCC_KXY7f&quot;&gt;void reset(deque&amp;lt;Vector2&amp;gt; bodyStart, Vector2 directionStart)&lt;/font&gt;&lt;/span&gt;&lt;/div&gt;&lt;/div&gt;&lt;/div&gt;&lt;/div&gt;&lt;/div&gt;" style="rounded=0;whiteSpace=wrap;html=1;align=left;" vertex="1" parent="WIyWlLk6GJQsqaUBKTNV-1">
          <mxGeometry x="4791" y="4094" width="198" height="100" as="geometry" />
        </mxCell>
        <mxCell id="cRIQFE2jVJvkHg1aeFsc-372" value="&lt;b&gt;Snake&lt;/b&gt;" style="text;html=1;strokeColor=none;fillColor=none;align=center;verticalAlign=middle;whiteSpace=wrap;rounded=0;fontFamily=Helvetica;fontSize=11;" vertex="1" parent="WIyWlLk6GJQsqaUBKTNV-1">
          <mxGeometry x="4860" y="3984.7" width="60" height="30" as="geometry" />
        </mxCell>
        <mxCell id="cRIQFE2jVJvkHg1aeFsc-373" value="" style="endArrow=none;dashed=1;html=1;rounded=0;" edge="1" parent="WIyWlLk6GJQsqaUBKTNV-1">
          <mxGeometry width="50" height="50" relative="1" as="geometry">
            <mxPoint x="4660" y="3695" as="sourcePoint" />
            <mxPoint x="4789" y="3695.3999999999996" as="targetPoint" />
          </mxGeometry>
        </mxCell>
        <mxCell id="cRIQFE2jVJvkHg1aeFsc-374" value="" style="endArrow=classic;html=1;rounded=0;" edge="1" parent="WIyWlLk6GJQsqaUBKTNV-1">
          <mxGeometry width="50" height="50" relative="1" as="geometry">
            <mxPoint x="4674" y="3695" as="sourcePoint" />
            <mxPoint x="4660" y="3695" as="targetPoint" />
          </mxGeometry>
        </mxCell>
        <mxCell id="cRIQFE2jVJvkHg1aeFsc-379" value="" style="endArrow=none;dashed=1;html=1;rounded=0;exitX=0.5;exitY=1;exitDx=0;exitDy=0;entryX=0.5;entryY=0;entryDx=0;entryDy=0;" edge="1" parent="WIyWlLk6GJQsqaUBKTNV-1" source="cRIQFE2jVJvkHg1aeFsc-359" target="cRIQFE2jVJvkHg1aeFsc-365">
          <mxGeometry width="50" height="50" relative="1" as="geometry">
            <mxPoint x="4519.5" y="4194" as="sourcePoint" />
            <mxPoint x="4560" y="4210" as="targetPoint" />
          </mxGeometry>
        </mxCell>
        <mxCell id="cRIQFE2jVJvkHg1aeFsc-380" value="" style="endArrow=classic;html=1;rounded=0;" edge="1" parent="WIyWlLk6GJQsqaUBKTNV-1">
          <mxGeometry width="50" height="50" relative="1" as="geometry">
            <mxPoint x="4560.15" y="4183" as="sourcePoint" />
            <mxPoint x="4560.15" y="4173" as="targetPoint" />
            <Array as="points">
              <mxPoint x="4560.15" y="4173" />
            </Array>
          </mxGeometry>
        </mxCell>
        <mxCell id="cRIQFE2jVJvkHg1aeFsc-381" value="" style="endArrow=none;dashed=1;html=1;rounded=0;" edge="1" parent="WIyWlLk6GJQsqaUBKTNV-1">
          <mxGeometry width="50" height="50" relative="1" as="geometry">
            <mxPoint x="4663" y="3999.45" as="sourcePoint" />
            <mxPoint x="4792" y="3999.8499999999995" as="targetPoint" />
          </mxGeometry>
        </mxCell>
        <mxCell id="cRIQFE2jVJvkHg1aeFsc-382" value="" style="endArrow=classic;html=1;rounded=0;" edge="1" parent="WIyWlLk6GJQsqaUBKTNV-1">
          <mxGeometry width="50" height="50" relative="1" as="geometry">
            <mxPoint x="4673" y="3999.45" as="sourcePoint" />
            <mxPoint x="4659" y="3999.45" as="targetPoint" />
          </mxGeometry>
        </mxCell>
        <mxCell id="cRIQFE2jVJvkHg1aeFsc-384" value="" style="endArrow=none;dashed=1;html=1;rounded=0;entryX=0.507;entryY=0.013;entryDx=0;entryDy=0;exitX=0.5;exitY=1;exitDx=0;exitDy=0;entryPerimeter=0;" edge="1" parent="WIyWlLk6GJQsqaUBKTNV-1" source="cRIQFE2jVJvkHg1aeFsc-363" target="cRIQFE2jVJvkHg1aeFsc-369">
          <mxGeometry width="50" height="50" relative="1" as="geometry">
            <mxPoint x="4820" y="3960" as="sourcePoint" />
            <mxPoint x="4949" y="3960.3999999999996" as="targetPoint" />
          </mxGeometry>
        </mxCell>
        <mxCell id="cRIQFE2jVJvkHg1aeFsc-385" value="" style="endArrow=classic;html=1;rounded=0;entryX=0.5;entryY=1;entryDx=0;entryDy=0;" edge="1" parent="WIyWlLk6GJQsqaUBKTNV-1" target="cRIQFE2jVJvkHg1aeFsc-363">
          <mxGeometry width="50" height="50" relative="1" as="geometry">
            <mxPoint x="4891" y="3930" as="sourcePoint" />
            <mxPoint x="4883" y="3930" as="targetPoint" />
          </mxGeometry>
        </mxCell>
      </root>
    </mxGraphModel>
  </diagram>
</mxfile>
